<svg width="1038" height="289" viewBox="0 0 1038 289" fill="none" xmlns="http://www.w3.org/2000/svg">
<path fill-rule="evenodd" clip-rule="evenodd" d="M286.075 64C286.075 28.654 257.421 0 222.075 0C174.946 0 111.13 0 64 0C28.654 0 0 28.654 0 64C0 67.493 0 71.0039 0 74.4969C0 109.844 28.654 138.497 64 138.497C111.13 138.497 174.946 138.497 222.075 138.497C257.421 138.497 286.075 109.844 286.075 74.4969C286.075 71.0039 286.075 67.493 286.075 64ZM242.432 68.505C242.432 54.702 231.242 43.513 217.44 43.513H68.732C54.929 43.513 43.74 54.702 43.74 68.505V68.507C43.74 82.31 54.929 93.499 68.732 93.499C106.895 93.499 179.276 93.499 217.44 93.499C231.242 93.499 242.432 82.31 242.432 68.507V68.505Z" fill="#FF8660"/>
<path fill-rule="evenodd" clip-rule="evenodd" d="M79.9691 93.4201H128.027C132.438 87.3851 140.468 83.3871 149.618 83.4691C163.418 83.5931 174.528 92.9651 174.428 104.401C174.138 136.018 173.598 195.998 173.318 227.618C173.218 239.048 161.938 248.218 148.138 248.098C134.335 247.978 123.23 238.598 123.333 227.168L124.13 138.438H79.1301L78.3021 230.598C78.0381 259.888 106.478 283.888 141.818 284.208C145.318 284.238 148.828 284.268 152.318 284.298C187.668 284.618 216.528 261.138 216.798 231.848C217.148 192.798 217.618 139.918 217.968 100.872C218.238 71.5851 189.798 47.5861 154.448 47.2681C150.958 47.2371 147.448 47.2051 143.958 47.1741C111.143 46.8791 83.9151 67.0951 79.9691 93.4201Z" fill="#62D9FF"/>
<path d="M337.911 223.128C343.267 242.492 357.79 252.174 381.479 252.174C396.723 252.174 408.259 247.024 416.087 236.724L448.222 255.263C432.978 277.305 410.525 288.326 380.861 288.326C355.318 288.326 334.821 280.601 319.371 265.151C303.922 249.702 296.197 230.235 296.197 206.751C296.197 183.474 303.819 164.11 319.062 148.66C334.306 133.005 353.876 125.177 377.771 125.177C400.431 125.177 419.074 133.005 433.699 148.66C448.531 164.316 455.947 183.68 455.947 206.751C455.947 211.901 455.432 217.36 454.402 223.128H337.911ZM337.293 192.229H416.087C413.821 181.723 409.083 173.895 401.873 168.745C394.869 163.595 386.835 161.02 377.771 161.02C367.06 161.02 358.202 163.801 351.198 169.363C344.194 174.719 339.559 182.341 337.293 192.229ZM517.454 156.076C521.162 146.188 527.239 138.772 535.685 133.829C544.336 128.885 553.915 126.413 564.421 126.413V170.908C552.267 169.466 541.35 171.938 531.668 178.324C522.192 184.71 517.454 195.319 517.454 210.15V284H477.594V129.503H517.454V156.076ZM621.414 156.076C625.122 146.188 631.199 138.772 639.644 133.829C648.296 128.885 657.875 126.413 668.381 126.413V170.908C656.227 169.466 645.309 171.938 635.628 178.324C626.152 184.71 621.414 195.319 621.414 210.15V284H581.553V129.503H621.414V156.076ZM797.198 129.503H837.058V284H797.198V265.769C785.25 280.807 768.461 288.326 746.832 288.326C726.232 288.326 708.516 280.498 693.685 264.842C679.059 248.981 671.746 229.617 671.746 206.751C671.746 183.886 679.059 164.625 693.685 148.969C708.516 133.108 726.232 125.177 746.832 125.177C768.461 125.177 785.25 132.696 797.198 147.733V129.503ZM723.657 238.269C731.691 246.303 741.888 250.32 754.248 250.32C766.607 250.32 776.804 246.303 784.838 238.269C793.078 230.029 797.198 219.523 797.198 206.751C797.198 193.98 793.078 183.577 784.838 175.543C776.804 167.303 766.607 163.183 754.248 163.183C741.888 163.183 731.691 167.303 723.657 175.543C715.623 183.577 711.606 193.98 711.606 206.751C711.606 219.523 715.623 230.029 723.657 238.269Z" fill="white"/>
<path d="M1033.57 284H985.06L943.036 213.549L901.013 284H852.81L918.935 173.071L856.209 67.7037H904.412L943.036 132.593L981.661 67.7037H1029.86L967.138 172.762L1033.57 284Z" fill="url(#paint0_linear_114_347)"/>
<defs>
<linearGradient id="paint0_linear_114_347" x1="870.5" y1="145.64" x2="1037.89" y2="151.753" gradientUnits="userSpaceOnUse">
<stop stop-color="#62D9FF"/>
<stop offset="1" stop-color="#FF8660"/>
</linearGradient>
</defs>
</svg>
