<svg width="22" height="26" viewBox="0 0 22 26" fill="none" xmlns="http://www.w3.org/2000/svg">
<path fill-rule="evenodd" clip-rule="evenodd" d="M17.9034 7.24501V9.16168C20.0563 9.8337 21.625 11.7827 21.625 14.1105V20.2816C21.625 23.1635 19.2358 25.5 16.2903 25.5H5.711C2.7642 25.5 0.375 23.1635 0.375 20.2816V14.1105C0.375 11.7827 1.94493 9.8337 4.09661 9.16168V7.24501C4.10931 3.51848 7.19583 0.5 10.9809 0.5C14.8169 0.5 17.9034 3.51848 17.9034 7.24501ZM11.0064 2.67381C13.5848 2.67381 15.6806 4.72339 15.6806 7.24501V8.89213H6.31941V7.22016C6.33211 4.71097 8.4279 2.67381 11.0064 2.67381ZM12.1114 18.5687C12.1114 19.1773 11.616 19.6618 10.9936 19.6618C10.384 19.6618 9.8886 19.1773 9.8886 18.5687V15.811C9.8886 15.2148 10.384 14.7303 10.9936 14.7303C11.616 14.7303 12.1114 15.2148 12.1114 15.811V18.5687Z" fill="#F3F3F3"/>
</svg>
