<svg width="14" height="17" viewBox="0 0 14 17" fill="none" xmlns="http://www.w3.org/2000/svg">
<g id="Group 27">
<path id="Vector" d="M7.70802 15.1725C9.11618 13.967 12.6131 10.5951 12.6131 6.83926C12.6131 3.81145 10.1586 1.35693 7.13076 1.35693C4.10296 1.35693 1.64844 3.81145 1.64844 6.83926C1.64844 10.5951 5.14534 13.967 6.55351 15.1725C6.8904 15.4609 7.37113 15.4609 7.70802 15.1725Z" stroke="#FF8660" stroke-width="1.5" strokeLinecap="round" strokeLinejoin="round"/>
<path id="Vector_2" d="M7.13071 8.76289C8.37085 8.76289 9.37618 7.75757 9.37618 6.51743C9.37618 5.2773 8.37085 4.27197 7.13071 4.27197C5.89058 4.27197 4.88525 5.2773 4.88525 6.51743C4.88525 7.75757 5.89058 8.76289 7.13071 8.76289Z" fill="#FF8660" stroke="#FF8660" stroke-width="1.5" strokeLinecap="round" strokeLinejoin="round"/>
</g>
</svg>
