<svg width="26" height="24" viewBox="0 0 26 24" fill="none" xmlns="http://www.w3.org/2000/svg">
<path fill-rule="evenodd" clip-rule="evenodd" d="M20.2111 7.47725H25.5C25.5 3.23074 22.9556 0.75 18.6444 0.75H7.35556C3.04444 0.75 0.5 3.23074 0.5 7.42309V16.5769C0.5 20.7693 3.04444 23.25 7.35556 23.25H18.6444C22.9556 23.25 25.5 20.7693 25.5 16.5769V16.1869H20.2111C17.7565 16.1869 15.7667 14.2469 15.7667 11.8538C15.7667 9.46061 17.7565 7.52058 20.2111 7.52058V7.47725ZM20.2111 9.34052H24.5667C25.0821 9.34052 25.5 9.74792 25.5 10.2505V13.4137C25.494 13.9138 25.0796 14.3178 24.5667 14.3237H20.3111C19.0685 14.34 17.9819 13.5105 17.7 12.3304C17.5588 11.5979 17.757 10.842 18.2413 10.2653C18.7257 9.68859 19.4467 9.35009 20.2111 9.34052ZM20.4 12.6662H20.8111C21.3389 12.6662 21.7667 12.2491 21.7667 11.7346C21.7667 11.2201 21.3389 10.803 20.8111 10.803H20.4C20.1476 10.8001 19.9045 10.8958 19.725 11.0688C19.5455 11.2418 19.4444 11.4777 19.4444 11.7238C19.4444 12.2401 19.8705 12.6603 20.4 12.6662ZM6.42222 7.47725H13.4778C14.0055 7.47725 14.4333 7.06014 14.4333 6.54562C14.4333 6.03109 14.0055 5.61399 13.4778 5.61399H6.42222C5.89879 5.61395 5.47275 6.02449 5.46667 6.53479C5.46663 7.05109 5.89269 7.47132 6.42222 7.47725Z" fill="#F3F3F3"/>
</svg>
